<?xml version="1.0" encoding="UTF-8"?><svg xmlns="http://www.w3.org/2000/svg" width="16px" height="16px" viewBox="0 0 16 16" version="1.1">  <path d="M 10.28 0.73 C 9.85 0.96 9.23 1.48 8.35 2.32 C 7.65 3.01 6.98 3.64 6.88 3.71 C 6.78 3.78 6.63 3.95 6.56 4.09 C 6.45 4.31 6.45 4.32 6.62 4.26 C 7.13 4.06 7.75 4.09 8.37 4.33 L 8.99 4.58 L 9.84 3.67 C 10.97 2.46 11.35 2.21 12.16 2.21 C 12.83 2.21 13.11 2.35 13.55 2.93 C 13.84 3.29 13.85 4.32 13.57 4.78 C 13.31 5.21 10.06 8.49 9.62 8.78 C 9.31 8.97 9.09 9.02 8.57 9.02 C 8.21 9.02 7.89 8.99 7.87 8.94 C 7.86 8.90 7.68 8.75 7.48 8.61 C 6.68 8.05 5.74 8.42 5.74 9.29 C 5.74 9.68 5.79 9.77 6.17 10.10 C 6.78 10.61 7.11 10.76 7.93 10.91 C 8.70 11.05 9.77 10.93 10.25 10.65 C 10.92 10.27 11.78 9.51 13.35 7.92 C 15.48 5.77 15.58 5.58 15.58 3.86 C 15.58 2.48 15.42 1.98 14.71 1.28 C 14.01 0.57 13.51 0.41 12.11 0.41 C 10.96 0.41 10.89 0.42 10.28 0.73 Z M 10.28 0.73 "/>  <path d="M 6.46 5.29 C 6.09 5.35 5.58 5.51 5.33 5.65 C 5.06 5.79 4.01 6.75 2.83 7.89 C 0.29 10.39 0.20 10.56 0.20 12.32 C 0.20 13.73 0.37 14.20 1.07 14.92 C 1.79 15.62 2.26 15.79 3.68 15.79 C 4.83 15.79 4.90 15.78 5.50 15.45 C 5.93 15.24 6.56 14.71 7.43 13.87 C 8.14 13.19 8.80 12.56 8.91 12.49 C 9.01 12.42 9.16 12.24 9.23 12.11 C 9.34 11.88 9.34 11.87 9.16 11.93 C 8.65 12.13 8.04 12.11 7.43 11.86 L 6.82 11.62 L 5.84 12.61 C 4.61 13.86 4.42 13.98 3.62 13.98 C 2.96 13.98 2.67 13.84 2.23 13.27 C 1.93 12.90 1.92 11.88 2.20 11.43 C 2.48 10.98 5.72 7.71 6.17 7.42 C 6.48 7.23 6.69 7.17 7.21 7.17 C 7.57 7.17 7.89 7.21 7.91 7.25 C 7.93 7.30 8.11 7.44 8.30 7.58 C 9.10 8.15 10.05 7.78 10.05 6.91 C 10.05 6.52 10 6.42 9.62 6.10 C 9.00 5.57 8.66 5.42 7.84 5.29 C 7.31 5.19 6.96 5.19 6.46 5.29 Z M 6.46 5.29 "/></svg>